<svg xmlns="http://www.w3.org/2000/svg" xmlns:xlink="http://www.w3.org/1999/xlink" version="1.1" width="1200px" height="1200px" style="shape-rendering:geometricPrecision; text-rendering:geometricPrecision; image-rendering:optimizeQuality; fill-rule:evenodd; clip-rule:evenodd">
<g><path style="opacity:0.999" fill="#0052ff" d="M 565.5,-0.5 C 588.167,-0.5 610.833,-0.5 633.5,-0.5C 801.933,12.1362 942.1,81.1362 1054,206.5C 1141.66,309.898 1190.16,429.564 1199.5,565.5C 1199.5,588.167 1199.5,610.833 1199.5,633.5C 1186.86,801.933 1117.86,942.1 992.5,1054C 889.102,1141.66 769.435,1190.16 633.5,1199.5C 610.833,1199.5 588.167,1199.5 565.5,1199.5C 397.067,1186.86 256.9,1117.86 145,992.5C 57.3438,889.102 8.84382,769.435 -0.5,633.5C -0.5,610.833 -0.5,588.167 -0.5,565.5C 12.1362,397.067 81.1362,256.9 206.5,145C 309.898,57.3439 429.564,8.84395 565.5,-0.5 Z"/></g>
<g><path style="opacity:1" fill="#fefeff" d="M 177.5,639.5 C 177.5,637.833 177.5,636.167 177.5,634.5C 386.5,634.5 595.5,634.5 804.5,634.5C 804.831,610.994 804.498,587.661 803.5,564.5C 595.001,563.5 386.334,563.167 177.5,563.5C 177.5,562.167 177.5,560.833 177.5,559.5C 192.014,432.923 250.014,331.756 351.5,256C 463.62,178.889 585.62,158.223 717.5,194C 845.696,234.863 936.53,317.03 990,440.5C 1029.63,543.447 1030.63,646.78 993,750.5C 937.668,884.938 839.835,971.438 699.5,1010C 559.95,1040.82 434.95,1011.49 324.5,922C 239.223,847.09 190.223,752.923 177.5,639.5 Z"/></g>
<g><path style="opacity:1" fill="#7fa7ff" d="M 177.5,559.5 C 177.5,560.833 177.5,562.167 177.5,563.5C 386.334,563.167 595.001,563.5 803.5,564.5C 594.5,564.5 385.5,564.5 176.5,564.5C 176.216,562.585 176.549,560.919 177.5,559.5 Z"/></g>
<g><path style="opacity:1" fill="#4880ff" d="M 803.5,564.5 C 804.498,587.661 804.831,610.994 804.5,634.5C 595.5,634.5 386.5,634.5 177.5,634.5C 177.5,636.167 177.5,637.833 177.5,639.5C 176.539,637.735 176.205,635.735 176.5,633.5C 385.5,633.5 594.5,633.5 803.5,633.5C 803.5,610.5 803.5,587.5 803.5,564.5 Z"/></g>
</svg>